<svg xmlns="http://www.w3.org/2000/svg" xmlns:svg="http://www.w3.org/2000/svg" id="svg2" width="64" height="64" version="1.1"><defs id="defs4"><pattern id="pattern3043" width="40" height="30" patternTransform="translate(-88,995.375)" patternUnits="userSpaceOnUse"><path id="path3018-3" d="m 35,4.9872 0,20" style="fill:none;stroke:#31d58f;stroke-width:10;stroke-linecap:square;stroke-linejoin:round;stroke-miterlimit:4;stroke-opacity:.94117647;stroke-dasharray:none"/><path style="fill:none;stroke:#e5b41f;stroke-width:10;stroke-linecap:square;stroke-linejoin:round;stroke-miterlimit:4;stroke-opacity:.94117647;stroke-dasharray:none" id="path3794-6" d="m 25,4.9872 0,20"/><path id="path3796-7" d="m 15,4.9872 0,20" style="fill:none;stroke:#50a1ef;stroke-width:10;stroke-linecap:square;stroke-linejoin:round;stroke-miterlimit:4;stroke-opacity:.94117647;stroke-dasharray:none"/><path style="fill:none;stroke:#c64438;stroke-width:10;stroke-linecap:square;stroke-linejoin:round;stroke-miterlimit:4;stroke-opacity:.94117647;stroke-dasharray:none" id="path3798-5" d="m 5,4.9872 0,20"/></pattern></defs><metadata id="metadata7"/><g id="layer1" transform="translate(0,-988.36218)"><g id="g4657"><path style="font-size:medium;font-style:normal;font-variant:normal;font-weight:400;font-stretch:normal;text-indent:0;text-align:start;text-decoration:none;line-height:normal;letter-spacing:normal;word-spacing:normal;text-transform:none;direction:ltr;block-progression:tb;writing-mode:lr-tb;text-anchor:start;baseline-shift:baseline;color:#000;fill:gray;fill-opacity:1;fill-rule:nonzero;stroke:none;stroke-width:2;marker:none;visibility:visible;display:inline;overflow:visible;enable-background:accumulate;font-family:Sans;-inkscape-font-specification:Sans" id="path3825" d="m 11,992.36218 c -1.644703,0 -3,1.3553 -3,3 l 0,50.00002 c 0,1.6447 1.355297,3 3,3 l 41.999997,0 c 1.64471,0 3,-1.3553 3,-3 l 0,-50.00002 c 0,-1.6447 -1.35529,-3 -3,-3 z m 3,4 35.999997,0 c 1.0907,0 2,0.9093 2,2 l 0,28.00002 c 0,1.0907 -0.9093,2 -2,2 l -35.999997,0 c -1.090701,0 -2,-0.9093 -2,-2 l 0,-28.00002 c 0,-1.0907 0.909299,-2 2,-2 z m 18.812497,36.00002 c 0.0623,-0.01 0.12519,-0.01 0.1875,0 l 1,0 16,0 1,0 c 0.52359,0 0.99995,0.4764 1,1 l 0,2 c -5e-5,0.5236 -0.47641,0.9999 -1,1 l -1,0 -16,0 -1,0 c -0.52358,-10e-5 -0.99994,-0.4764 -1,-1 l 0,-2 c -0.008,-0.4666 0.3541,-0.9126 0.8125,-1 z"/><g id="g4619"><path id="path3827" d="m 43,1000.375 -4,24 6,0 4,-24 z" style="font-size:medium;font-style:normal;font-variant:normal;font-weight:400;font-stretch:normal;text-indent:0;text-align:start;text-decoration:none;line-height:normal;letter-spacing:normal;word-spacing:normal;text-transform:none;direction:ltr;block-progression:tb;writing-mode:lr-tb;text-anchor:start;baseline-shift:baseline;color:#000;fill:#31d58f;fill-opacity:1;stroke:none;stroke-width:6;marker:none;visibility:visible;display:inline;overflow:visible;enable-background:accumulate;font-family:Sans;-inkscape-font-specification:Sans"/><path id="path3829" d="m 35,1000.375 -4,24 6,0 4,-24 z" style="font-size:medium;font-style:normal;font-variant:normal;font-weight:400;font-stretch:normal;text-indent:0;text-align:start;text-decoration:none;line-height:normal;letter-spacing:normal;word-spacing:normal;text-transform:none;direction:ltr;block-progression:tb;writing-mode:lr-tb;text-anchor:start;baseline-shift:baseline;color:#000;fill:#e5b41f;fill-opacity:1;stroke:none;stroke-width:6;marker:none;visibility:visible;display:inline;overflow:visible;enable-background:accumulate;font-family:Sans;-inkscape-font-specification:Sans"/><path id="path3831" d="m 27,1000.375 -4,24 6,0 4,-24 z" style="font-size:medium;font-style:normal;font-variant:normal;font-weight:400;font-stretch:normal;text-indent:0;text-align:start;text-decoration:none;line-height:normal;letter-spacing:normal;word-spacing:normal;text-transform:none;direction:ltr;block-progression:tb;writing-mode:lr-tb;text-anchor:start;baseline-shift:baseline;color:#000;fill:#50a1ef;fill-opacity:1;stroke:none;stroke-width:6;marker:none;visibility:visible;display:inline;overflow:visible;enable-background:accumulate;font-family:Sans;-inkscape-font-specification:Sans"/><path id="path3833" d="m 19,1000.375 -4,24 6,0 4,-24 z" style="font-size:medium;font-style:normal;font-variant:normal;font-weight:400;font-stretch:normal;text-indent:0;text-align:start;text-decoration:none;line-height:normal;letter-spacing:normal;word-spacing:normal;text-transform:none;direction:ltr;block-progression:tb;writing-mode:lr-tb;text-anchor:start;baseline-shift:baseline;color:#000;fill:#c64438;fill-opacity:1;stroke:none;stroke-width:6;marker:none;visibility:visible;display:inline;overflow:visible;enable-background:accumulate;font-family:Sans;-inkscape-font-specification:Sans"/></g></g></g></svg>